<svg xmlns="http://www.w3.org/2000/svg" viewBox="0 0 192 192" width="192" height="192">
  <rect width="192" height="192" rx="38" fill="#17171c"/>
  <g transform="translate(16,59) scale(1.6)">
    <path d="M50 0C45 12 35 20 20 22C14 22 8 19 0 12C3 24 10 36 22 42C30 46 38 46 44 42C47 40 49 35 50 30C51 35 53 40 56 42C62 46 70 46 78 42C90 36 97 24 100 12C92 19 86 22 80 22C65 20 55 12 50 0Z" fill="#7B3FA0"/>
    <path d="M50 5C46 14 38 20 26 22C22 22 16 20 10 16C12 24 18 32 28 37C34 40 40 40 45 37C48 35 49 31 50 27C51 31 52 35 55 37C60 40 66 40 72 37C82 32 88 24 90 16C84 20 78 22 74 22C62 20 54 14 50 5Z" fill="#5C2D82"/>
  </g>
</svg>
